<svg width="204" height="48" viewBox="0 0 204 48" fill="none" xmlns="http://www.w3.org/2000/svg">
<path fill-rule="evenodd" clip-rule="evenodd" d="M15.1809 2.35878C20.9476 -0.786261 28.0524 -0.78626 33.8191 2.35878L39.6809 5.55568C45.4476 8.70072 49 14.513 49 20.8031V27.1969C49 33.487 45.4476 39.2993 39.6809 42.4443L33.8191 45.6412C28.0524 48.7862 20.9476 48.7862 15.1809 45.6412L9.31911 42.4443C3.55243 39.2993 0 33.487 0 27.1969V20.8031C0 14.513 3.55243 8.70073 9.31911 5.55568L15.1809 2.35878ZM24.265 10.3555C21.125 10.1968 21.125 10.1981 21.1249 10.1994L21.1248 10.2023L21.1244 10.2084L21.1238 10.2223L21.1223 10.2572C21.1212 10.2835 21.1201 10.3159 21.1192 10.3541C21.1174 10.4306 21.1163 10.5305 21.1176 10.6513C21.1201 10.8925 21.1322 11.2202 21.1681 11.6136C21.2394 12.3941 21.4077 13.4685 21.8026 14.6554C22.5971 17.0437 24.373 20.0319 28.1927 21.7723C29.989 22.5907 30.8536 23.9591 31.2956 25.2877C31.519 25.9592 31.618 26.5833 31.6594 27.0367C31.6798 27.2602 31.6854 27.4333 31.6865 27.5387C31.6871 27.5911 31.6865 27.6259 31.6861 27.6409C31.6861 27.6451 31.686 27.6477 31.6859 27.6487C31.6859 27.6495 31.6859 27.6492 31.686 27.648L31.6863 27.6396L31.6867 27.6324L31.6869 27.628L31.687 27.6256C31.6871 27.6243 31.6872 27.623 34.8271 27.7817C37.9671 27.9404 37.9671 27.9391 37.9672 27.9378L37.9674 27.9349L37.9677 27.9288L37.9684 27.9149L37.9699 27.88C37.9709 27.8537 37.972 27.8213 37.9729 27.7831C37.9747 27.7066 37.9758 27.6067 37.9746 27.4859C37.972 27.2447 37.96 26.917 37.924 26.5236C37.8527 25.7431 37.6844 24.6687 37.2896 23.4818C36.495 21.0935 34.7191 18.1053 30.8994 16.3649C29.1031 15.5465 28.2385 14.1781 27.7965 12.8495C27.5731 12.178 27.4741 11.5539 27.4327 11.1005C27.4123 10.877 27.4067 10.7039 27.4056 10.5985C27.405 10.5461 27.4056 10.5113 27.406 10.4963C27.4061 10.4888 27.4063 10.4864 27.4062 10.4892L27.4058 10.4976L27.4054 10.5048L27.4052 10.5092L27.4051 10.5116C27.405 10.5129 27.4049 10.5142 24.265 10.3555ZM13.9975 20.4161C10.8576 20.2574 10.8575 20.2587 10.8574 20.2601L10.8573 20.2629L10.857 20.269L10.8563 20.2829L10.8548 20.3178C10.8538 20.3441 10.8527 20.3765 10.8518 20.4148C10.85 20.4912 10.8488 20.5911 10.8501 20.7119C10.8526 20.9531 10.8647 21.2808 10.9006 21.6742C10.9719 22.4547 11.1402 23.5292 11.5351 24.716C12.3296 27.1043 14.1056 30.0925 17.9253 31.8329C19.7216 32.6513 20.5862 34.0197 21.0281 35.3483C21.2516 36.0198 21.3505 36.6439 21.3919 37.0973C21.4124 37.3208 21.418 37.4939 21.4191 37.5993C21.4196 37.6517 21.419 37.6865 21.4187 37.7015C21.4185 37.709 21.4184 37.7114 21.4185 37.7086L21.4189 37.7002L21.4192 37.693L21.4195 37.6886L21.4196 37.6862C21.4197 37.6849 21.4197 37.6836 24.5597 37.8423C27.6996 38.001 27.6997 37.9997 27.6998 37.9984L27.6999 37.9955L27.7002 37.9895L27.7009 37.9755L27.7024 37.9406C27.7034 37.9143 27.7045 37.8819 27.7054 37.8437C27.7072 37.7673 27.7084 37.6674 27.7071 37.5465C27.7046 37.3053 27.6925 36.9776 27.6566 36.5842C27.5853 35.8037 27.417 34.7293 27.0221 33.5424C26.2276 31.1541 24.4516 28.1659 20.6319 26.4255C18.8356 25.6071 17.971 24.2387 17.5291 22.9102C17.3056 22.2386 17.2067 21.6146 17.1653 21.1612C17.1449 20.9376 17.1392 20.7645 17.1381 20.6591C17.1376 20.6067 17.1382 20.5719 17.1385 20.5569L17.1387 20.5499L17.1383 20.5582L17.138 20.5655L17.1377 20.5699L17.1376 20.5723C17.1375 20.5735 17.1375 20.5748 13.9975 20.4161Z" fill="#610BEF"/>
<path d="M72.56 21.36C72.56 22.1067 72.38 22.8067 72.02 23.46C71.6733 24.1133 71.12 24.64 70.36 25.04C69.6133 25.44 68.6667 25.64 67.52 25.64H65.18V31H62.38V17.04H67.52C68.6 17.04 69.52 17.2267 70.28 17.6C71.04 17.9733 71.6067 18.4867 71.98 19.14C72.3667 19.7933 72.56 20.5333 72.56 21.36ZM67.4 23.38C68.1733 23.38 68.7467 23.2067 69.12 22.86C69.4933 22.5 69.68 22 69.68 21.36C69.68 20 68.92 19.32 67.4 19.32H65.18V23.38H67.4ZM78.098 21.64C78.458 21.0533 78.9246 20.5933 79.498 20.26C80.0846 19.9267 80.7513 19.76 81.498 19.76V22.7H80.758C79.878 22.7 79.2113 22.9067 78.758 23.32C78.318 23.7333 78.098 24.4533 78.098 25.48V31H75.298V19.92H78.098V21.64ZM89.0539 31.18C87.9872 31.18 87.0272 30.9467 86.1739 30.48C85.3206 30 84.6472 29.3267 84.1539 28.46C83.6739 27.5933 83.4339 26.5933 83.4339 25.46C83.4339 24.3267 83.6806 23.3267 84.1739 22.46C84.6806 21.5933 85.3672 20.9267 86.2339 20.46C87.1006 19.98 88.0672 19.74 89.1339 19.74C90.2006 19.74 91.1672 19.98 92.0339 20.46C92.9006 20.9267 93.5806 21.5933 94.0739 22.46C94.5806 23.3267 94.8339 24.3267 94.8339 25.46C94.8339 26.5933 94.5739 27.5933 94.0539 28.46C93.5472 29.3267 92.8539 30 91.9739 30.48C91.1072 30.9467 90.1339 31.18 89.0539 31.18ZM89.0539 28.74C89.5606 28.74 90.0339 28.62 90.4739 28.38C90.9272 28.1267 91.2872 27.7533 91.5539 27.26C91.8206 26.7667 91.9539 26.1667 91.9539 25.46C91.9539 24.4067 91.6739 23.6 91.1139 23.04C90.5672 22.4667 89.8939 22.18 89.0939 22.18C88.2939 22.18 87.6206 22.4667 87.0739 23.04C86.5406 23.6 86.2739 24.4067 86.2739 25.46C86.2739 26.5133 86.5339 27.3267 87.0539 27.9C87.5872 28.46 88.2539 28.74 89.0539 28.74ZM102.718 22.22H100.778V31H97.9378V22.22H96.6778V19.92H97.9378V19.36C97.9378 18 98.3245 17 99.0978 16.36C99.8711 15.72 101.038 15.42 102.598 15.46V17.82C101.918 17.8067 101.444 17.92 101.178 18.16C100.911 18.4 100.778 18.8333 100.778 19.46V19.92H102.718V22.22ZM115.582 25.22C115.582 25.62 115.556 25.98 115.502 26.3H107.402C107.469 27.1 107.749 27.7267 108.242 28.18C108.736 28.6333 109.342 28.86 110.062 28.86C111.102 28.86 111.842 28.4133 112.282 27.52H115.302C114.982 28.5867 114.369 29.4667 113.462 30.16C112.556 30.84 111.442 31.18 110.122 31.18C109.056 31.18 108.096 30.9467 107.242 30.48C106.402 30 105.742 29.3267 105.262 28.46C104.796 27.5933 104.562 26.5933 104.562 25.46C104.562 24.3133 104.796 23.3067 105.262 22.44C105.729 21.5733 106.382 20.9067 107.222 20.44C108.062 19.9733 109.029 19.74 110.122 19.74C111.176 19.74 112.116 19.9667 112.942 20.42C113.782 20.8733 114.429 21.52 114.882 22.36C115.349 23.1867 115.582 24.14 115.582 25.22ZM112.682 24.42C112.669 23.7 112.409 23.1267 111.902 22.7C111.396 22.26 110.776 22.04 110.042 22.04C109.349 22.04 108.762 22.2533 108.282 22.68C107.816 23.0933 107.529 23.6733 107.422 24.42H112.682ZM122.616 31.18C121.709 31.18 120.896 31.02 120.176 30.7C119.456 30.3667 118.883 29.92 118.456 29.36C118.043 28.8 117.816 28.18 117.776 27.5H120.596C120.649 27.9267 120.856 28.28 121.216 28.56C121.589 28.84 122.049 28.98 122.596 28.98C123.129 28.98 123.543 28.8733 123.836 28.66C124.143 28.4467 124.296 28.1733 124.296 27.84C124.296 27.48 124.109 27.2133 123.736 27.04C123.376 26.8533 122.796 26.6533 121.996 26.44C121.169 26.24 120.489 26.0333 119.956 25.82C119.436 25.6067 118.983 25.28 118.596 24.84C118.223 24.4 118.036 23.8067 118.036 23.06C118.036 22.4467 118.209 21.8867 118.556 21.38C118.916 20.8733 119.423 20.4733 120.076 20.18C120.743 19.8867 121.523 19.74 122.416 19.74C123.736 19.74 124.789 20.0733 125.576 20.74C126.363 21.3933 126.796 22.28 126.876 23.4H124.196C124.156 22.96 123.969 22.6133 123.636 22.36C123.316 22.0933 122.883 21.96 122.336 21.96C121.829 21.96 121.436 22.0533 121.156 22.24C120.889 22.4267 120.756 22.6867 120.756 23.02C120.756 23.3933 120.943 23.68 121.316 23.88C121.689 24.0667 122.269 24.26 123.056 24.46C123.856 24.66 124.516 24.8667 125.036 25.08C125.556 25.2933 126.003 25.6267 126.376 26.08C126.763 26.52 126.963 27.1067 126.976 27.84C126.976 28.48 126.796 29.0533 126.436 29.56C126.089 30.0667 125.583 30.4667 124.916 30.76C124.263 31.04 123.496 31.18 122.616 31.18ZM134.265 31.18C133.358 31.18 132.545 31.02 131.825 30.7C131.105 30.3667 130.531 29.92 130.105 29.36C129.691 28.8 129.465 28.18 129.425 27.5H132.245C132.298 27.9267 132.505 28.28 132.865 28.56C133.238 28.84 133.698 28.98 134.245 28.98C134.778 28.98 135.191 28.8733 135.485 28.66C135.791 28.4467 135.945 28.1733 135.945 27.84C135.945 27.48 135.758 27.2133 135.385 27.04C135.025 26.8533 134.445 26.6533 133.645 26.44C132.818 26.24 132.138 26.0333 131.605 25.82C131.085 25.6067 130.631 25.28 130.245 24.84C129.871 24.4 129.685 23.8067 129.685 23.06C129.685 22.4467 129.858 21.8867 130.205 21.38C130.565 20.8733 131.071 20.4733 131.725 20.18C132.391 19.8867 133.171 19.74 134.065 19.74C135.385 19.74 136.438 20.0733 137.225 20.74C138.011 21.3933 138.445 22.28 138.525 23.4H135.845C135.805 22.96 135.618 22.6133 135.285 22.36C134.965 22.0933 134.531 21.96 133.985 21.96C133.478 21.96 133.085 22.0533 132.805 22.24C132.538 22.4267 132.405 22.6867 132.405 23.02C132.405 23.3933 132.591 23.68 132.965 23.88C133.338 24.0667 133.918 24.26 134.705 24.46C135.505 24.66 136.165 24.8667 136.685 25.08C137.205 25.2933 137.651 25.6267 138.025 26.08C138.411 26.52 138.611 27.1067 138.625 27.84C138.625 28.48 138.445 29.0533 138.085 29.56C137.738 30.0667 137.231 30.4667 136.565 30.76C135.911 31.04 135.145 31.18 134.265 31.18ZM140.953 25.42C140.953 24.3 141.173 23.3067 141.613 22.44C142.066 21.5733 142.673 20.9067 143.433 20.44C144.206 19.9733 145.066 19.74 146.013 19.74C146.84 19.74 147.56 19.9067 148.173 20.24C148.8 20.5733 149.3 20.9933 149.673 21.5V19.92H152.493V31H149.673V29.38C149.313 29.9 148.813 30.3333 148.173 30.68C147.546 31.0133 146.82 31.18 145.993 31.18C145.06 31.18 144.206 30.94 143.433 30.46C142.673 29.98 142.066 29.3067 141.613 28.44C141.173 27.56 140.953 26.5533 140.953 25.42ZM149.673 25.46C149.673 24.78 149.54 24.2 149.273 23.72C149.006 23.2267 148.646 22.8533 148.193 22.6C147.74 22.3333 147.253 22.2 146.733 22.2C146.213 22.2 145.733 22.3267 145.293 22.58C144.853 22.8333 144.493 23.2067 144.213 23.7C143.946 24.18 143.813 24.7533 143.813 25.42C143.813 26.0867 143.946 26.6733 144.213 27.18C144.493 27.6733 144.853 28.0533 145.293 28.32C145.746 28.5867 146.226 28.72 146.733 28.72C147.253 28.72 147.74 28.5933 148.193 28.34C148.646 28.0733 149.006 27.7 149.273 27.22C149.54 26.7267 149.673 26.14 149.673 25.46ZM158.778 21.64C159.138 21.0533 159.604 20.5933 160.178 20.26C160.764 19.9267 161.431 19.76 162.178 19.76V22.7H161.438C160.558 22.7 159.891 22.9067 159.438 23.32C158.998 23.7333 158.778 24.4533 158.778 25.48V31H155.978V19.92H158.778V21.64ZM175.414 19.92L168.554 36.24H165.574L167.974 30.72L163.534 19.92H166.674L169.534 27.66L172.434 19.92H175.414Z" fill="#610BEF"/>
</svg>
